<svg aria-hidden="true" xmlns="http://www.w3.org/2000/svg" xmlns:xlink="http://www.w3.org/1999/xlink"><symbol viewBox="0 0 34 33" fill="none" id="arrow-b" xmlns="http://www.w3.org/2000/svg">
<path d="M1 0.648926L32.7692 32.4057M32.7692 32.4057V6.63209M32.7692 32.4057H5.14381" stroke="currentColor"/>
</symbol><symbol viewBox="0 0 118 50" fill="none" id="logo" xmlns="http://www.w3.org/2000/svg">
<g clip-path="url(#bclip0_1_762)">
<path d="M38.5951 12.3672C36.8715 12.3672 35.4162 11.7803 34.2313 10.6088C33.0465 9.4373 32.4541 7.96069 32.4541 6.18362C32.4541 4.40656 33.0512 2.97419 34.2477 1.78405C35.4441 0.593907 36.9392 0 38.7304 0C40.8505 0 42.5181 0.838457 43.7309 2.51304L41.3146 4.38094C40.5776 3.46329 39.703 3.00447 38.6954 3.00447C37.8674 3.00447 37.1864 3.30958 36.6546 3.92212C36.1205 4.53466 35.8546 5.28694 35.8546 6.18129C35.8546 7.07565 36.1205 7.84423 36.6546 8.44979C37.1887 9.05534 37.8674 9.35811 38.6954 9.35811C39.2738 9.35811 39.7683 9.237 40.1764 8.99245C40.5846 8.75023 40.9881 8.38923 41.3846 7.9141L43.8685 9.67952C43.2458 10.5296 42.5181 11.1887 41.6924 11.6592C40.8645 12.1297 39.8336 12.3649 38.5974 12.3649L38.5951 12.3672Z" fill="currentColor"/>
<path d="M47.1221 12.1271V0.237305H52.7523C54.4876 0.237305 55.7797 0.661191 56.631 1.51129C57.333 2.21467 57.6852 3.15327 57.6852 4.33177C57.6852 6.07623 56.8689 7.29432 55.2362 7.98372L58.077 12.1294H54.266L51.8684 8.52872H50.4223V12.1294H47.1221V12.1271ZM50.4223 5.94347H52.6007C53.1558 5.94347 53.5896 5.81537 53.9021 5.56151C54.2147 5.30764 54.3709 4.95363 54.3709 4.49946C54.3709 4.0453 54.2147 3.6843 53.9021 3.44673C53.5896 3.20917 53.1511 3.09039 52.5844 3.09039H50.4246V5.94347H50.4223Z" fill="currentColor"/>
<path d="M59.3505 12.1271V0.237305H68.927V3.03915H62.6157V4.8395H68.3323V7.43872H62.6157V9.32525H69.011V12.1271H59.3481H59.3505Z" fill="currentColor"/>
<path d="M69.7455 12.127L74.8136 0.15332H77.9949L83.0631 12.1293H79.5249L78.6573 10.0052H74.065L73.2137 12.1293H69.7432L69.7455 12.127ZM75.0352 7.43858H77.7057L76.3786 4.05913L75.0352 7.43858Z" fill="currentColor"/>
<path d="M87.1283 12.1271V3.12532H83.5552V0.237305H93.9993V3.12532H90.4262V12.1271H87.126H87.1283Z" fill="currentColor"/>
<path d="M95.4476 12.1271V0.237305H105.024V3.03915H98.7129V4.8395H104.429V7.43872H98.7129V9.32525H105.108V12.1271H95.4453H95.4476Z" fill="currentColor"/>
<path d="M36.7782 31.174V22.1722H33.2051V19.2842H43.6492V22.1722H40.0761V31.174H36.7759H36.7782Z" fill="currentColor"/>
<path d="M47.1221 31.174V19.2842H50.4223V23.735H54.6578V19.2842H57.9581V31.174H54.6578V26.6556H50.4223V31.174H47.1221Z" fill="currentColor"/>
<path d="M60.0663 31.174V19.2842H69.6428V22.086H63.3316V23.8864H69.0481V26.4856H63.3316V28.3721H69.7268V31.174H60.064H60.0663Z" fill="currentColor"/>
<path d="M31.9086 49.7621L36.9767 37.7861H40.158L45.2262 49.7621H41.688L40.8204 47.638H36.228L35.3767 49.7621H31.9062H31.9086ZM37.1983 45.0737H39.8688L38.5417 41.6943L37.1983 45.0737Z" fill="currentColor"/>
<path d="M47.1221 49.7628V37.873H50.6089L53.4497 42.4776L56.2904 37.873H59.7773V49.7628H56.4934V42.9341L53.4497 47.5875H53.382L50.3547 42.9667V49.7605H47.1221V49.7628Z" fill="currentColor"/>
<path d="M60.934 49.7621L66.0021 37.7861H69.1834L74.2515 49.7621H70.7134L69.8458 47.638H65.2534L64.4021 49.7621H60.9316H60.934ZM66.2237 45.0737H68.8942L67.5671 41.6943L66.2237 45.0737Z" fill="currentColor"/>
<path d="M75.0352 49.7628V47.3686L81.0059 40.6586H75.2404V37.873H85.5656V40.2673L79.5948 46.9773H85.5656V49.7628H75.0352Z" fill="currentColor"/>
<path d="M87.3501 49.7628V37.873H90.6667V49.7628H87.3501Z" fill="currentColor"/>
<path d="M92.8451 49.7628V37.873H95.9238L100.822 44.1591V37.873H104.087V49.7628H101.195L96.108 43.2392V49.7628H92.8428H92.8451Z" fill="currentColor"/>
<path d="M112.271 50.0001C110.401 50.0001 108.852 49.4201 107.627 48.2579C106.403 47.0981 105.79 45.6168 105.79 43.8164C105.79 42.0161 106.398 40.6047 107.618 39.4169C108.838 38.2267 110.366 37.6328 112.203 37.6328C114.041 37.6328 115.697 38.2104 117.034 39.3656L115.096 41.6923C114.2 40.9447 113.241 40.5721 112.22 40.5721C111.357 40.5721 110.634 40.8888 110.051 41.5223C109.468 42.1558 109.174 42.9384 109.174 43.8677C109.174 44.797 109.477 45.6191 110.083 46.2363C110.69 46.8535 111.464 47.1633 112.406 47.1633C113.178 47.1633 113.813 46.9979 114.312 46.6695V45.2255H111.963V42.8126H117.442V48.1624C115.956 49.3852 114.233 49.9977 112.271 49.9977V50.0001Z" fill="currentColor"/>
<path d="M24.3611 49.7622C10.9059 49.7622 0 38.8693 0 25.4353C0 12.0014 10.9059 1.1084 24.3611 1.1084V49.7622Z" fill="currentColor"/>
</g>
<defs>
<clipPath id="bclip0_1_762">
<rect width="117.442" height="50" fill="currentColor"/>
</clipPath>
</defs>
</symbol><symbol viewBox="0 0 20 20" fill="none" id="telegram" xmlns="http://www.w3.org/2000/svg">
<g clip-path="url(#cclip0_1_796)">
<mask id="cpath-1-inside-1_1_796" fill="currentColor">
<path fill-rule="evenodd" clip-rule="evenodd" d="M16.4809 3.69182C17.3875 3.31009 18.3594 4.0767 18.1993 5.04728L16.3086 16.5112C16.1262 17.6165 14.9122 18.2508 13.8982 17.7C13.0496 17.239 11.7906 16.5296 10.6559 15.7882C10.0893 15.418 8.35442 14.2308 8.56767 13.3857C8.75 12.6631 11.6666 9.9482 13.3332 8.33362C13.9879 7.69939 13.6898 7.333 12.9166 7.91695C10.9986 9.36554 7.91927 11.568 6.90097 12.1878C6.00252 12.7346 5.53343 12.828 4.97388 12.7346C3.95211 12.5644 3.0048 12.3007 2.2314 11.9801C1.18609 11.5468 1.23701 10.1103 2.23069 9.69195L16.4809 3.69182Z"/>
</mask>
<path fill-rule="evenodd" clip-rule="evenodd" d="M16.4809 3.69182C17.3875 3.31009 18.3594 4.0767 18.1993 5.04728L16.3086 16.5112C16.1262 17.6165 14.9122 18.2508 13.8982 17.7C13.0496 17.239 11.7906 16.5296 10.6559 15.7882C10.0893 15.418 8.35442 14.2308 8.56767 13.3857C8.75 12.6631 11.6666 9.9482 13.3332 8.33362C13.9879 7.69939 13.6898 7.333 12.9166 7.91695C10.9986 9.36554 7.91927 11.568 6.90097 12.1878C6.00252 12.7346 5.53343 12.828 4.97388 12.7346C3.95211 12.5644 3.0048 12.3007 2.2314 11.9801C1.18609 11.5468 1.23701 10.1103 2.23069 9.69195L16.4809 3.69182Z" fill="currentColor"/>
<path d="M16.4809 3.69182L29.4162 34.413L29.4163 34.4129L16.4809 3.69182ZM18.1993 5.04728L-14.6896 -0.377319L-14.6897 -0.377123L18.1993 5.04728ZM16.3086 16.5112L49.1974 21.9365L49.1976 21.9356L16.3086 16.5112ZM13.8982 17.7L29.8086 -11.5912L29.8081 -11.5914L13.8982 17.7ZM10.6559 15.7882L-7.57854 43.6919L-7.57744 43.6926L10.6559 15.7882ZM8.56767 13.3857L40.8879 21.5414L40.8879 21.5412L8.56767 13.3857ZM13.3332 8.33362L36.5264 32.275L36.5267 32.2747L13.3332 8.33362ZM12.9166 7.91695L33.006 34.5163L33.0062 34.5162L12.9166 7.91695ZM6.90097 12.1878L24.2315 40.6617L24.2325 40.6611L6.90097 12.1878ZM4.97388 12.7346L10.4582 -20.1444L10.4524 -20.1454L4.97388 12.7346ZM2.2314 11.9801L-10.5336 42.7724L-10.5325 42.7729L2.2314 11.9801ZM2.23069 9.69195L15.1644 40.4138L15.166 40.4131L2.23069 9.69195ZM29.4163 34.4129C6.14732 44.2105 -18.7986 24.5352 -14.6896 -0.377319L51.0883 10.4719C55.5175 -16.3818 28.6277 -37.5904 3.54552 -27.0293L29.4163 34.4129ZM-14.6897 -0.377123L-16.5804 11.0868L49.1976 21.9356L51.0883 10.4717L-14.6897 -0.377123ZM-16.5803 11.0859C-13.1712 -9.58041 9.92791 -22.39 29.8086 -11.5912L-2.01228 46.9911C19.8966 58.8916 45.4237 44.8135 49.1974 21.9365L-16.5803 11.0859ZM29.8081 -11.5914C29.6001 -11.7044 29.3707 -11.8323 29.1582 -11.9561C28.9273 -12.0906 28.8429 -12.1465 28.8893 -12.1162L-7.57744 43.6926C-5.33708 45.1565 -3.17208 46.3611 -2.01175 46.9913L29.8081 -11.5914ZM28.8904 -12.1155C28.9216 -12.0951 30.3842 -11.1802 32.1358 -9.53561C32.9284 -8.79145 35.1941 -6.60742 37.3096 -3.08075C39.1019 -0.0927081 43.9953 9.227 40.8879 21.5414L-23.7525 5.22996C-26.9666 17.9669 -21.9363 27.752 -19.8609 31.2118C-17.4625 35.2104 -14.7676 37.8728 -13.4971 39.0656C-10.7897 41.6077 -8.17631 43.3013 -7.57854 43.6919L28.8904 -12.1155ZM40.8879 21.5412C39.999 25.064 38.7231 27.634 38.0854 28.8372C37.3537 30.218 36.6697 31.2623 36.2501 31.8743C35.4282 33.0734 34.7391 33.8883 34.5215 34.1435C34.0456 34.7018 33.8007 34.9303 34.0931 34.6346C34.7246 33.9962 35.2287 33.5322 36.5264 32.275L-9.85992 -15.6077C-10.2288 -15.2503 -12.0164 -13.5496 -13.3055 -12.2463C-13.9733 -11.5711 -15.0857 -10.4275 -16.2119 -9.1065C-16.7545 -8.46993 -17.7144 -7.31172 -18.7373 -5.81958C-19.2573 -5.06096 -20.0243 -3.88265 -20.8196 -2.38199C-21.5209 -1.05883 -22.8409 1.61712 -23.7526 5.23016L40.8879 21.5412ZM36.5267 32.2747C38.3731 30.486 41.5937 27.0007 43.9963 21.7173C45.1414 19.1992 52.8166 1.12067 38.2786 -14.8049C24.2668 -30.1541 6.16356 -24.9822 3.83931 -24.2863C-1.46615 -22.6979 -5.21565 -20.1606 -7.17303 -18.6823L33.0062 34.5162C31.4354 35.7025 28.0131 38.0666 22.9606 39.5793C20.8892 40.1995 2.96457 45.3931 -10.9579 30.1418C-25.4066 14.3141 -17.7312 -3.59035 -16.6902 -5.87962C-14.3917 -10.9342 -11.3792 -14.1358 -9.86024 -15.6074L36.5267 32.2747ZM-7.1728 -18.6824C-7.83274 -18.184 -8.82228 -17.4595 -9.75745 -16.7939C-10.2165 -16.4672 -10.5846 -16.2102 -10.833 -16.0401C-10.9566 -15.9554 -11.0045 -15.9239 -10.989 -15.9341C-10.9789 -15.9408 -10.9314 -15.9721 -10.8531 -16.0222C-10.7804 -16.0687 -10.6333 -16.1621 -10.4306 -16.2855L24.2325 40.6611C26.8477 39.0692 31.1401 35.9256 33.006 34.5163L-7.1728 -18.6824ZM-10.4296 -16.2861C-9.69626 -16.7325 -6.91831 -18.4005 -2.7933 -19.5026C2.23498 -20.846 6.85945 -20.7447 10.4582 -20.1444L-0.51045 45.6137C3.64786 46.3073 8.78665 46.4085 14.414 44.9051C19.138 43.643 22.5998 41.6549 24.2315 40.6617L-10.4296 -16.2861ZM10.4524 -20.1454C11.4802 -19.9742 13.0404 -19.623 14.9953 -18.8126L-10.5325 42.7729C-7.03075 44.2244 -3.57599 45.1029 -0.504648 45.6147L10.4524 -20.1454ZM14.9964 -18.8122C43.016 -7.19665 39.7217 30.0753 15.1644 40.4138L-10.703 -21.0299C-37.2477 -9.85475 -40.6438 30.2902 -10.5336 42.7724L14.9964 -18.8122ZM15.166 40.4131L29.4162 34.413L3.54561 -27.0293L-10.7046 -21.0292L15.166 40.4131Z" fill="currentColor" mask="url(#cpath-1-inside-1_1_796)"/>
</g>
<defs>
<clipPath id="cclip0_1_796">
<rect width="20" height="20" fill="currentColor"/>
</clipPath>
</defs>
</symbol><symbol viewBox="0 0 16 15" fill="none" id="vk" xmlns="http://www.w3.org/2000/svg">
<g clip-path="url(#dclip0_1_787)">
<mask id="dmask0_1_787" maskUnits="userSpaceOnUse" x="0" y="0" width="16" height="15">
<path d="M15.0752 0H0.0751953V15H15.0752V0Z" fill="currentColor"/>
</mask>
<g mask="url(#dmask0_1_787)">
<path fill-rule="evenodd" clip-rule="evenodd" d="M1.12961 1.05442C0.0751953 2.10883 0.0751953 3.80589 0.0751953 7.2V7.8C0.0751953 11.1941 0.0751953 12.8912 1.12961 13.9456C2.18403 15 3.88109 15 7.2752 15H7.8752C11.2693 15 12.9664 15 14.0208 13.9456C15.0752 12.8912 15.0752 11.1941 15.0752 7.8V7.2C15.0752 3.80589 15.0752 2.10883 14.0208 1.05442C12.9664 0 11.2693 0 7.8752 0H7.2752C3.88109 0 2.18403 0 1.12961 1.05442ZM2.60648 4.56254C2.68772 8.46254 4.6377 10.8063 8.05646 10.8063H8.25024V8.57502C9.50649 8.70002 10.4564 9.61878 10.8377 10.8063H12.6127C12.1252 9.03128 10.8439 8.05002 10.0439 7.67502C10.8439 7.21253 11.9689 6.08753 12.2377 4.56254H10.6251C10.2751 5.80004 9.23774 6.92502 8.25024 7.03127V4.56254H6.63768V8.88752C5.63769 8.63753 4.37522 7.42503 4.31897 4.56254H2.60648Z" fill="currentColor"/>
</g>
</g>
<defs>
<clipPath id="dclip0_1_787">
<rect width="15.15" height="15" fill="currentColor"/>
</clipPath>
</defs>
</symbol><symbol viewBox="0 0 20 14" fill="none" id="youtube" xmlns="http://www.w3.org/2000/svg">
<path fill-rule="evenodd" clip-rule="evenodd" d="M7.98844 9.58612V3.9743C9.98064 4.91173 11.5236 5.81731 13.3485 6.79364C11.8433 7.62835 9.98064 8.56492 7.98844 9.58612ZM19.091 1.18328C18.7474 0.730524 18.1617 0.378089 17.5381 0.261409C15.7053 -0.0866411 4.27099 -0.0876311 2.43915 0.261409C1.93911 0.355149 1.49384 0.581732 1.11133 0.933772C-0.500363 2.42967 0.00466618 10.4517 0.393147 11.7512C0.556507 12.3136 0.76769 12.7193 1.03365 12.9855C1.37631 13.3376 1.84547 13.58 2.38436 13.6887C3.89345 14.0008 11.668 14.1753 17.5062 13.7355C18.0441 13.6418 18.5202 13.3916 18.8958 13.0246C20.3859 11.5347 20.2843 3.06213 19.091 1.18328Z" fill="currentColor"/>
</symbol></svg>